# xmcd
#
# Track frame offsets:
#	180
#	15847
#	30926
#	43909
#	56066
#	76192
#	95173
#	113375
#	129866
#	150282
#	165900
#	177313
#	195314
#	212228
#	227786
#
# Disc length: 3264 seconds
# Revision: 0
# Processed by: cddbd v1.5.2PL0 Copyright (c) Steve Scherf et al.
# Submitted via: dBpowerAMP V12.0
#
DISCID=a60cbe0f
DTITLE=Sumpter Bruton and Michael Price - Swingmasters Review
DYEAR=1995
DGENRE=
TTITLE0=Sometimes
TTITLE1=Cuttin' In
TTITLE2=I want a bowlegged woman
TTITLE3=Tomorrow Night
TTITLE4=Walk Right In (Walkin' Blues)
TTITLE5=Save Your love for me
TTITLE6=Sumpters contribution to Bop
TTITLE7=I want to talk about you
TTITLE8=Aged and Mellow
TTITLE9=Red Light
TTITLE10=Rags to riches
TTITLE11=I'll never be free
TTITLE12=I've got a contract on you baby
TTITLE13=I'm Pulling through
TTITLE14=Two Bones For the Price of One
EXTD=
EXTT0=
EXTT1=
EXTT2=
EXTT3=
EXTT4=
EXTT5=
EXTT6=
EXTT7=
EXTT8=
EXTT9=
EXTT10=
EXTT11=
EXTT12=
EXTT13=
EXTT14=
PLAYORDER=
